<svg width="81" height="24" viewBox="0 0 81 24" fill="none" xmlns="http://www.w3.org/2000/svg">
<g clip-path="url(#clip0_17_2021)">
<path d="M66.9712 0H75.494C75.7692 0.0729798 76.3914 0.130425 76.7011 0.166575C79.5863 0.503332 80.0099 3.48595 79.5673 5.8407C79.3609 6.93766 78.853 7.47855 77.8757 8.0912C78.2898 8.22172 78.7387 8.407 79.05 8.7154C79.9217 9.57916 80.1847 10.7663 80.2076 11.9501C80.2353 13.3654 80.1985 14.6866 79.1595 15.7728C78.7356 16.1938 77.9797 16.5914 77.3758 16.686C76.162 16.8764 74.7797 16.8043 73.5485 16.8038L66.9316 16.8149C66.8952 15.5025 66.9142 14.1278 66.9146 12.811L66.9162 6.06255L66.9138 2.3263C66.9138 1.65416 66.885 0.635699 66.9712 0ZM69.2924 14.4412L73.8384 14.4433C74.6788 14.4437 76.3016 14.5457 77.0495 14.2194C77.9165 13.6302 77.7381 12.8855 77.7642 11.9616C77.7899 11.0313 77.8294 9.7092 76.6089 9.58822C75.6447 9.47933 74.6697 9.55568 73.7 9.53207C72.3881 9.55666 70.8998 9.48138 69.6104 9.55184C69.4641 9.55477 69.4289 9.53219 69.3161 9.60292L69.309 12.4942C69.3098 13.115 69.328 13.8293 69.2924 14.4412ZM69.2924 7.14516C69.7979 7.10621 70.5379 7.12768 71.0635 7.12871L74.1753 7.13496C74.9822 7.13591 76.1185 7.24195 76.8071 6.80667C77.477 6.09359 77.2793 5.14909 77.301 4.25302C77.3181 3.54686 77.0214 2.68733 76.2415 2.51025C75.7115 2.38995 74.9897 2.43181 74.4388 2.4318L71.0259 2.43622C70.6273 2.43695 69.7207 2.4644 69.3513 2.42747C69.3043 2.69552 69.3154 3.48365 69.3098 3.79116C69.2892 4.8992 69.3422 6.03831 69.2924 7.14516Z" fill="black" style="fill:black;fill-opacity:1;"/>
<path d="M33.1606 0H41.6728C42.1209 0.128618 42.7921 0.138715 43.3217 0.257772C45.8854 0.833907 46.1713 3.81979 45.7169 5.95939C45.5065 6.94909 44.9353 7.56897 44.0538 8.09488C46.0444 8.66898 46.3762 10.5042 46.3173 12.2611C46.2662 13.7668 46.3948 15.0181 45.016 16.043C44.5505 16.3899 44.0087 16.6207 43.4356 16.7161C42.7039 16.8357 41.5455 16.8051 40.7726 16.8044L37.0564 16.806L34.6495 16.8066C34.219 16.8067 33.5742 16.8277 33.1651 16.7677C33.0425 16.5014 33.099 13.6649 33.0983 13.1699L33.0996 5.04937L33.0941 2.06578C33.0927 1.60223 33.0566 0.401053 33.1606 0ZM35.4826 14.4625C35.9896 14.4113 36.809 14.4393 37.3497 14.4397L40.7651 14.4428C41.4652 14.4433 42.9732 14.5483 43.4925 14.0322C44.0016 13.4157 43.9264 12.7114 43.9335 11.9853C43.9403 11.2394 43.9798 9.80457 43.0171 9.63634C42.0596 9.46909 40.8679 9.53199 39.8843 9.53235C38.4213 9.5329 36.9408 9.51021 35.4821 9.55267C35.4451 11.1396 35.4702 12.8714 35.4826 14.4625ZM35.4812 7.1505C35.9638 7.10416 36.7717 7.12824 37.2766 7.12891L40.4384 7.13433C41.0708 7.13535 42.624 7.24926 43.0539 6.72874L43.0804 6.69734C43.0887 6.68687 43.097 6.67635 43.1053 6.66587C43.6104 6.12138 43.5095 4.85484 43.4965 4.17137C43.4605 2.28532 42.024 2.41226 40.603 2.43128C40.338 2.43483 40.0477 2.43147 39.7862 2.43164C38.3478 2.42646 36.9093 2.43241 35.4709 2.44948C35.4866 4.01492 35.4602 5.58722 35.4812 7.1505Z" fill="black" style="fill:black;fill-opacity:1;"/>
<path d="M49.2381 0H51.5447C53.6852 2.62529 55.7817 5.47129 57.8732 8.14905C58.7884 9.29662 59.6894 10.4551 60.5765 11.6244C60.9281 12.0871 61.3343 12.5288 61.6273 13.035L61.6226 3.87402C61.6222 3.24164 61.5751 0.37485 61.6799 0H63.9885C64.1218 0.347339 64.0593 2.01064 64.0593 2.48616L64.0577 6.99598L64.0573 13.4238C64.0573 13.8882 64.1273 16.6217 63.9818 16.7835C63.6108 16.8392 61.9461 16.8362 61.6131 16.7389C61.0558 16.0973 60.5401 15.3769 60.0093 14.7013C57.5702 11.5967 55.1727 8.45701 52.7367 5.3503C52.382 4.89813 51.8892 4.31624 51.6095 3.84181C51.6483 7.2567 51.5759 10.6851 51.6103 14.1013C51.6194 14.9951 51.6246 15.9162 51.5985 16.8087C50.9146 16.841 49.9243 16.8089 49.2064 16.8136C49.14 15.7687 49.187 14.2513 49.1874 13.1605L49.1894 6.29832L49.187 2.16099C49.187 1.6841 49.1625 0.415374 49.2381 0Z" fill="black" style="fill:black;fill-opacity:1;"/>
<path d="M0 22.2789C0.401959 22.0729 0.447877 21.9236 0.791178 21.6582C1.24028 21.3166 1.70694 20.9988 2.18924 20.7059C7.07239 17.7707 12.6245 16.1066 17.7134 19.1833C21.6009 21.5337 25.159 21.7282 29.2819 19.9243C29.9003 19.6537 30.4688 19.4708 31.1143 19.143C31.1527 19.4439 30.6376 19.8555 30.4713 20.0837C29.8929 20.8771 29.1331 21.3645 28.4106 22.0022C28.2493 22.1445 27.9144 22.27 27.7338 22.3997C26.4635 23.2607 24.9925 23.7132 23.4855 23.9357C23.399 23.9484 23.251 23.9724 23.1708 24.0004H21.6094C21.3987 23.9323 20.857 23.8811 20.5925 23.8215C19.8424 23.6527 19.0119 23.4915 18.2846 23.2446C16.9122 22.7786 15.0306 21.5385 13.6733 21.1689C10.0974 20.1953 5.86336 21.2504 2.32412 22.005C1.51804 22.1768 0.7794 22.2401 0 22.4457V22.2789Z" fill="black" style="fill:black;fill-opacity:1;"/>
<path d="M0 13.5716C0.561704 13.0274 1.61181 12.3396 2.27397 11.9278C5.16043 10.1329 8.64473 8.74141 12.0833 8.79443C14.3467 8.82931 16.2254 9.5709 18.139 10.6705C20.3613 11.9474 23.0253 12.8128 25.5878 12.2591C26.2334 12.1264 26.9485 12.0618 27.61 11.8096C28.5716 11.4431 30.4041 10.8487 31.2254 10.3325C30.3373 12.0872 27.6845 13.9122 25.8428 14.6089C23.0244 15.675 19.8401 15.289 17.1482 14.0259C15.3879 13.2 13.8186 12.1535 11.8154 12.0928C8.60597 11.8284 5.5362 12.5675 2.42126 13.245C1.66131 13.4067 0.731377 13.4983 0 13.7195V13.5716Z" fill="black" style="fill:black;fill-opacity:1;"/>
<path d="M0 4.84228C2.04173 2.88427 5.63084 1.25892 8.3591 0.531329C9.71126 0.170714 10.8505 0.0541184 12.2045 0.0769729C14.9214 0.122833 16.8973 1.22792 19.2024 2.48878C20.7028 3.21337 22.4959 3.7289 24.1704 3.67757C25.5866 3.63416 26.849 3.26961 28.1863 2.88658C28.5392 2.78551 31.0006 1.71207 31.0926 1.75037C31.0922 2.01161 30.1701 2.99271 29.9463 3.21332C27.9569 5.17444 25.2271 6.49966 22.4093 6.53149C21.1559 6.54565 18.6993 6.01167 17.5223 5.46517C15.5888 4.56737 14.1291 3.55192 11.8761 3.32721C8.38128 2.97865 4.89611 4.08729 1.48083 4.66582C0.992677 4.74849 0.479704 4.88727 0 4.95148V4.84228Z" fill="black" style="fill:black;fill-opacity:1;"/>
<path d="M33.1262 18.0121C33.7446 17.9773 34.4574 17.984 35.0548 17.9852C35.6709 17.9865 36.8427 17.8855 37.2889 18.3416C37.8383 18.9034 37.7811 20.1687 37.2621 20.735C37.2176 20.7837 37.1715 20.8308 37.1239 20.8764C38.1795 21.4565 38.1829 23.5623 36.8082 24.0006H33.1286C33.0518 23.4224 33.09 21.6181 33.0905 20.9788C33.0911 20.3029 33.0465 18.6099 33.1262 18.0121ZM33.9507 23.1314C34.573 23.1013 36.4098 23.2196 36.8111 22.9897C36.9559 22.7119 37.0604 21.5813 36.7607 21.4985C35.9169 21.2655 34.862 21.4333 33.9693 21.3829C33.9811 21.8481 33.9885 22.6715 33.9507 23.1314ZM36.5299 20.4644C36.7852 20.2635 36.8103 20.0575 36.7941 19.7457C36.7728 19.3394 36.7589 18.8731 36.2324 18.8736C35.5496 18.8514 34.8648 18.8646 34.1828 18.8783L34.013 18.9023C33.933 19.0255 33.9767 20.2273 33.9494 20.5297C34.508 20.5254 36.0933 20.5648 36.5299 20.4644Z" fill="black" style="fill:black;fill-opacity:1;"/>
<path d="M41.7763 18.0181C42.4728 17.9562 45.6452 17.8394 46.0644 18.2885C46.7989 19.0752 46.9033 21.1861 45.4949 21.6048C45.8402 22.3486 46.3013 23.2482 46.5995 24.0008H45.6214C45.1963 23.1688 44.8886 22.4806 44.5231 21.6208C43.9057 21.6119 43.288 21.6165 42.6706 21.6346C42.6456 22.3782 42.7022 23.277 42.6385 24.0008H41.7886C41.7435 23.2864 41.7656 22.3828 41.766 21.6529L41.7763 18.0181ZM42.6725 20.758C43.3991 20.6764 44.9376 20.8687 45.4846 20.5975C45.6966 20.1491 45.6895 19.7274 45.5839 19.2298C45.5661 19.1474 45.434 18.9737 45.3569 18.9537C44.6442 18.7691 43.3722 18.951 42.6686 18.8895C42.6615 19.5123 42.6627 20.1352 42.6725 20.758Z" fill="black" style="fill:black;fill-opacity:1;"/>
<path d="M50.5814 24.0009C50.5494 23.3911 50.494 18.3698 50.615 18.048C50.9979 17.9442 54.4103 17.9618 54.9798 17.9829C54.998 18.2034 55.0657 18.6679 54.9446 18.842C54.6539 18.9206 51.9344 18.8866 51.4242 18.8921C51.4788 19.3653 51.4531 20.0713 51.4396 20.5597C52.4363 20.5637 53.4646 20.5408 54.4503 20.5497C54.4578 20.7601 54.51 21.2542 54.3878 21.402C54.0097 21.4795 52.9893 21.4255 52.5601 21.4377C52.3541 21.4436 51.6097 21.4551 51.4341 21.4428C51.4606 21.9198 51.4697 22.6494 51.4337 23.1299C51.8395 23.083 52.4375 23.1008 52.8623 23.1014L54.9755 23.0984C54.9953 23.3704 55.0214 23.7287 54.9941 24.0009H50.5814Z" fill="black" style="fill:black;fill-opacity:1;"/>
<path d="M58.9047 18.0154C60.2613 17.9226 61.8592 18.0313 63.2549 17.9727C63.2846 18.3134 63.281 18.5316 63.2699 18.8749C62.1558 18.9306 60.9455 18.8623 59.8041 18.9021C59.8484 19.2773 59.8009 20.1279 59.8061 20.5614C60.7648 20.5607 61.7496 20.5822 62.7048 20.5415C62.7392 20.8949 62.7467 21.0781 62.7293 21.434C61.928 21.4535 60.5979 21.4697 59.8061 21.4463C59.8472 21.8667 59.8002 22.6488 59.8069 23.1187C60.3408 23.0719 61.1544 23.1017 61.72 23.1003C62.125 23.0993 62.895 23.0824 63.2608 23.1126C63.2806 23.4472 63.2862 23.6665 63.2703 24.0007H58.9016C58.8802 23.497 58.8743 22.9661 58.883 22.4618C58.9087 20.9898 58.8355 19.4848 58.9047 18.0154Z" fill="black" style="fill:black;fill-opacity:1;"/>
<path d="M75.8965 18.0155C77.2187 17.9173 78.8775 18.0258 80.2475 17.9759C80.2515 18.2081 80.2713 18.5938 80.2305 18.8103C80.1 18.9269 77.1673 18.8866 76.7366 18.8996C76.7663 19.3807 76.7338 20.0367 76.7516 20.5598L78.6991 20.5607C78.9155 20.5603 79.4561 20.5405 79.6317 20.5747C79.7468 20.7042 79.7717 21.2446 79.6883 21.3804C79.5384 21.4736 77.0874 21.4464 76.7362 21.4442C76.756 21.7216 76.756 22.7919 76.7453 23.1024C77.8717 23.0996 79.1373 23.1349 80.2471 23.0954L80.2523 24.0002H75.8993C75.8515 23.6138 75.8621 23.1551 75.8645 22.7622C75.8736 21.181 75.8376 19.5954 75.8965 18.0155Z" fill="black" style="fill:black;fill-opacity:1;"/>
<path d="M67.2542 18.0092C68.1524 17.9597 69.1685 17.9992 70.0777 17.9856C70.4551 17.98 71.5463 17.9673 71.8405 18.0267C71.8876 18.0705 71.9129 18.0858 71.9137 18.153C71.918 18.4721 68.9838 22.4641 68.5803 23.1399C69.3718 23.001 71.0258 23.1082 71.865 23.1579C71.9845 23.165 71.9517 23.8858 71.9481 23.9991H67.1197C66.992 23.324 69.9504 19.7953 70.4183 18.8729C69.545 18.8976 68.0998 18.9235 67.2455 18.8657C67.2423 18.5713 67.2423 18.3034 67.2542 18.0092Z" fill="black" style="fill:black;fill-opacity:1;"/>
</g>
<defs>
<clipPath id="clip0_17_2021">
<rect width="81" height="24" fill="white" style="fill:white;fill-opacity:1;"/>
</clipPath>
</defs>
</svg>
